# Made using Asset Forge (www.assetforge.io) version 1.3 

mtllib ParHarbor-terrain-AF.mtl 

g ParHarbor_terrain_0

v 29.45916 0.293734 -17.60309
v 29.38193 0.29365 12.91884
v -0.6369781 0.297598 11.63656
v 5.252758 0.293658 -12.41709
v -16.41107 0.293635 -15.66437
v -28.90087 0.293676 -40.27976
v -40.16812 -2.580719 -40.27976
v -28.90087 -2.580719 -40.27976
v -40.16812 6.940764 -40.27976
v -23.26725 0.293676 -40.27976
v -23.26725 6.940764 -40.27976
v 47.64785 14.23495 -17.74011
v 65.55935 14.23333 -15.75484
v 47.39782 14.2351 -11.65597
v 38.6545 17.54531 24.69273
v 50.68033 31.51606 25.59233
v 34.02279 10.4729 37.5076
v 34.76869 12.07665 -4.795012
v 47.39782 22.79125 -5.510197
v 49.64329 22.79089 6.506116
v 48.11229 28.00791 16.49834
v 41.30876 14.15104 12.92711
v 21.80174 5.928717 49.80174
v 28.72065 5.929552 76.83505
v -45.80174 5.928717 49.80174
v -45.80174 5.928717 76.81024
v -23.26725 0.293676 -28.16495
v -45.7947 0.293676 -17.80174
v -40.16812 0.293676 -28.16495
v 16.16812 0.293676 -17.80174
v 65.55935 24.74902 8.900948
v 65.55935 37.4236 12.92711
v 65.55935 37.4236 19.07288
v -23.26725 6.940764 -28.16495
v 65.55935 22.79125 -5.510197
v 47.83446 22.78828 49.75858
v 65.55935 22.79125 37.5102
v 65.55935 22.79125 49.80174
v 47.39782 22.79125 37.5102
v 65.55935 31.40111 25.61656
v 45.51833 18.10296 57.06215
v 29.51189 3.869244 19.07889
v 36.41076 12.21099 60.80379
v -40.16812 6.940764 -28.16495
v -45.80174 -2.580719 -17.80174
v -40.16812 -2.580719 -17.80174
v 65.5593 -2.580712 -17.74003
v 29.91469 3.869103 43.04142
v -18.88237 3.868961 43.65518
v -45.80174 3.869241 43.65597
v -4.960652 3.869118 43.65563
v 6.143869 3.868997 28.29154
v -0.7327547 3.86924 19.07289
v -0.2479277 0.354747 28.31847
v -7.389431 0.298124 18.83521
v -15.75533 0.344962 12.08504
v -8.240319 0.354003 37.51077
v -23.26724 3.86924 37.5102
v -41.10339 3.869078 37.50991
v -21.39255 0.353706 32.04734
v -40.16812 0.353676 31.36443
v -45.80174 0.293676 6.781344
v -40.16812 0.353676 12.92712
v -45.80174 3.86924 12.92712
v -45.80178 3.869237 32.72668
v 13.7916 -2.580719 -18.02967
v -18.42063 -2.580499 -21.03545
v 0.1546726 -2.5803 -13.33444
v -20.37208 -2.580719 -37.45124
vn 0.0001 1 0
vn 0 1 -0.0002
vn 0 0 -1
vn -0.6083 0.7933 -0.025
vn -0.7579 0.647 0.0832
vn -0.6384 0.7604 0.1193
vn -0.7561 0.6533 -0.0385
vn -0.814 0.4829 -0.3229
vn 0 1 0
vn 0 1 -0.0001
vn -0.3374 0.285 -0.8972
vn -0.4396 0.8727 -0.2125
vn -0.4749 0.88 0
vn 1 0 0
vn -0.0002 1 0
vn -0.1431 0.7596 -0.6345
vn 0 0.81 0.5864
vn -0.6391 0.6938 0.3319
vn -0.6517 0.7428 0.1536
vn -0.6773 0.7353 0.0243
vn -0.7393 0.6485 0.1816
vn -0.8323 0.5543 0.0051
vn -0.4668 0.8763 0.1194
vn -0.0001 1 -0.0002
vn -0.0384 0.8834 -0.4671
vn 0.0046 0.7358 0.6772
vn -0.1011 0.9858 -0.1339
vn 0 1 0.0002
vn 0 0.5834 -0.8122
vn 0.0053 0.8062 0.5916
vn -0.4758 0.5131 -0.7144
vn -0.7907 0.4846 -0.3742
vn -0.7123 0.615 -0.3381
vn -0.4417 -0.8645 -0.2398
vn 0.1094 0.1165 -0.9871
vn 0 0 1
vn -1 0 0
vn -0.0963 0.914 -0.394
vn -0.0041 -0.0044 -1
vn -0.4103 0.7495 -0.5195
vn -0.9108 0.4129 -0.0023
vn -0.7124 0.6134 -0.341
vn -0.8314 0.554 0.0439
vn -0.7428 0.6392 0.1993
vn -0.5451 0.8383 -0.0067
vn -0.8437 0.5367 0.0142
vn 0 0.9482 -0.3177
vn -0.4524 0.8255 0.3375
vn -0.4559 0.8268 -0.3295
vn 0.0265 0.9993 -0.0259
vn -0.0004 1 -0.0002
vn 0.0032 1 0.0029
vn 0 1 0.0001
vn 0.018 0.8691 -0.4944
vn 0.4747 0.7607 -0.4426
vn 0.0001 0.8649 -0.502
vn 0 0.868 -0.4965
vn -0.4229 0.8147 -0.3967
vn -0.4544 0.8245 0.3372
vn -0.3587 0.8798 -0.3118
vn 0.0001 1 -0.0004
vn 0.4877 0.8007 -0.3479
vn 0 0.8409 -0.5412
vn -0.0175 -0.8668 -0.4983
vn 0.5294 0.8484 0
vn -0.0001 1 0
vn 0.0011 0.9999 -0.0107
vn 0.4118 0.8166 -0.4045
vn -0.0052 0.9548 -0.2972
vn 0.0186 0.9014 -0.4327
vn 0.13 0.9408 -0.313
vn 0.0003 1 -0.0003
vn -0.4054 0.4004 -0.8218
vn 0.2166 0.8248 -0.5224
vn 0.0149 0.0668 -0.9977
vn 0.148 0.0526 -0.9876
vn 0.7046 0.7096 0
vn 0.8431 0.2746 -0.4624
vn 0.0056 0.1171 -0.9931
vn -0.2445 0.6603 -0.7101
vn 0.5822 0.8101 -0.0692
vt -29.45916 -17.60309
vt -29.38193 12.91884
vt 0.6369781 11.63656
vt -5.252758 -12.41709
vt 16.41107 -15.66437
vt 28.90087 0.293676
vt 40.16812 -2.580719
vt 28.90087 -2.580719
vt 40.16812 6.940764
vt 23.26725 0.293676
vt 23.26725 6.940764
vt -47.64785 -17.74011
vt -65.55935 -15.75484
vt -47.39782 -11.65597
vt 24.69273 17.54531
vt 25.59233 31.51606
vt 37.5076 10.4729
vt -34.76869 -4.795012
vt -47.39782 -5.510197
vt -49.64329 6.506116
vt 16.49834 28.00791
vt 12.92711 14.15104
vt -21.80174 49.80174
vt -28.72065 76.83505
vt 45.80174 49.80174
vt 45.80174 76.81024
vt 23.26725 -28.16495
vt 45.7947 -17.80174
vt 40.16812 -28.16495
vt -16.16812 -17.80174
vt -48.11229 28.00791
vt -65.55935 24.74902
vt -65.55935 37.4236
vt -65.55935 19.07288
vt -50.68033 25.59233
vt -48.11229 16.49834
vt -65.55935 12.92711
vt 40.27976 0.293676
vt 28.16495 6.940764
vt 40.27976 6.940764
vt 40.16812 -40.27976
vt 23.26725 -40.27976
vt -65.55935 -5.510197
vt -47.83446 49.75858
vt -65.55935 37.5102
vt -65.55935 49.80174
vt -47.39782 37.5102
vt -65.55935 25.61656
vt -34.02279 37.5076
vt -41.30876 12.92711
vt 57.06215 18.10296
vt 49.75858 22.78828
vt 19.07889 3.869244
vt -36.41076 60.80379
vt -65.55935 8.900948
vt 28.16495 0.293676
vt -65.55935 22.79125
vt -47.39782 22.79125
vt -47.39782 14.2351
vt -34.76869 12.07665
vt 6.506116 22.79089
vt 45.7947 0.293676
vt 45.80174 -2.580719
vt 40.16812 17.80174
vt 40.16812 28.16495
vt 45.7947 17.80174
vt -65.5593 -2.580712
vt -65.55935 14.23333
vt -47.64785 14.23495
vt -40.16812 0.293676
vt -23.26725 6.940764
vt -23.26725 0.293676
vt -17.80174 -2.580719
vt -40.27976 -2.580719
vt -28.16495 0.293676
vt -29.91469 43.04142
vt -29.45916 0.293734
vt -40.27976 6.940764
vt -28.16495 6.940764
vt -40.16812 6.940764
vt -4.795012 12.07665
vt 12.91884 0.29365
vt -17.60309 0.293734
vt 60.80379 12.21099
vt 43.04142 3.869103
vt -45.51833 57.06215
vt 18.88237 43.65518
vt 45.80174 43.65597
vt 4.960652 43.65563
vt -6.143869 28.29154
vt 0.7327547 19.07289
vt 0.2479277 28.31847
vt 7.389431 18.83521
vt 15.75533 12.08504
vt 8.240319 37.51077
vt 23.26724 37.5102
vt 41.10339 37.50991
vt 21.39255 32.04734
vt 40.16812 31.36443
vt 45.80174 6.781344
vt 40.16812 12.92712
vt 45.80174 12.92712
vt 45.80178 32.72668
vt -29.51189 19.07889
vt 0.6369781 -11.63656
vt 15.75533 -12.08504
vt 40.16812 -12.92712
vt -5.252758 0.293658
vt -13.7916 -2.580719
vt -16.16812 0.293676
vt 18.42063 -21.03545
vt -0.1546726 -13.33444
vt 16.41107 0.293635
vt -0.1546726 -2.5803
vt 20.37208 -37.45124
vt 15.66437 0.293635
vt 21.03545 -2.580499

usemtl Material.001 (Instance)
usemap Material.001 (Instance)
f 3/3/1 2/2/1 1/1/1
f 5/5/2 3/3/2 4/4/2
f 8/8/3 7/7/3 6/6/3
f 7/7/3 9/9/3 6/6/3
f 6/6/3 11/11/3 10/10/3
f 14/14/1 13/13/1 12/12/1
f 1/1/4 14/14/4 12/12/4
f 17/17/5 16/16/5 15/15/5
f 20/20/6 19/19/6 18/18/6
f 16/16/7 21/21/7 15/15/7
f 15/15/8 21/21/8 22/22/8
f 25/25/9 24/24/9 23/23/9
f 26/26/9 24/24/9 25/25/9
f 29/29/9 28/28/9 27/27/9
f 1/1/10 30/30/10 3/3/10
f 32/33/11 31/32/11 21/31/11
f 21/36/12 16/35/12 33/34/12
f 33/34/13 32/37/13 21/36/13
f 11/40/14 34/39/14 10/38/14
f 11/42/9 9/41/9 34/27/9
f 19/19/9 20/20/9 35/43/9
f 9/9/3 11/11/3 6/6/3
f 38/46/15 37/45/15 36/44/15
f 13/13/16 14/14/16 35/43/16
f 37/45/17 40/48/17 39/47/17
f 39/47/18 16/35/18 17/49/18
f 18/18/19 22/50/19 20/20/19
f 36/44/20 39/47/20 17/49/20
f 36/52/21 17/17/21 41/51/21
f 15/15/22 42/53/22 17/17/22
f 24/24/23 43/54/23 23/23/23
f 28/28/9 5/5/9 27/27/9
f 30/30/24 4/4/24 3/3/24
f 31/55/25 20/20/25 21/36/25
f 16/35/26 40/48/26 33/34/26
f 34/39/14 27/56/14 10/38/14
f 9/41/9 44/29/9 34/27/9
f 20/20/27 31/55/27 35/43/27
f 37/45/28 39/47/28 36/44/28
f 14/59/29 19/58/29 35/57/29
f 40/48/30 16/35/30 39/47/30
f 18/60/31 19/58/31 14/59/31
f 22/22/32 21/21/32 20/61/32
f 42/53/33 15/15/33 22/22/33

usemtl customMaterial5 (Instance)
usemap customMaterial5 (Instance)
f 46/7/3 45/63/3 28/62/3
f 28/66/34 29/65/34 46/64/34
f 12/69/35 13/68/35 47/67/35
f 27/72/36 34/71/36 29/70/36
f 29/75/37 7/74/37 46/73/37
f 43/54/38 48/76/38 23/23/38
f 12/69/39 47/67/39 1/77/39
f 44/79/37 9/78/37 29/75/37
f 34/71/36 44/80/36 29/70/36
f 1/1/40 18/18/40 14/14/40
f 1/83/41 2/82/41 18/81/41
f 2/82/42 42/53/42 22/22/42
f 48/85/43 43/84/43 17/17/43
f 9/78/37 7/74/37 29/75/37
f 2/82/44 22/22/44 18/81/44
f 43/54/45 41/86/45 17/49/45
f 42/53/46 48/85/46 17/17/46

usemtl customMaterial6 (Instance)
usemap customMaterial6 (Instance)
f 50/88/47 25/25/47 49/87/47
f 49/87/47 25/25/47 51/89/47
f 52/90/9 51/89/9 48/76/9
f 54/92/48 52/90/48 53/91/48
f 54/92/49 51/89/49 52/90/49
f 56/94/50 54/92/50 55/93/50
f 56/94/51 57/95/51 54/92/51
f 56/94/52 55/93/52 3/3/52
f 59/97/53 49/87/53 58/96/53
f 61/99/54 59/97/54 60/98/54
f 64/102/55 63/101/55 62/100/55
f 65/103/9 50/88/9 59/97/9
f 52/90/9 48/76/9 42/104/9
f 25/25/47 23/23/47 51/89/47
f 42/104/56 2/2/56 53/91/56
f 51/89/57 57/95/57 49/87/57
f 52/90/9 42/104/9 53/91/9
f 55/93/58 53/91/58 3/3/58
f 54/92/59 53/91/59 55/93/59
f 57/95/60 51/89/60 54/92/60
f 60/98/61 57/95/61 56/94/61
f 61/99/9 60/98/9 63/101/9
f 28/28/2 3/3/2 5/5/2
f 49/87/62 60/98/62 58/96/62
f 59/97/63 58/96/63 60/98/63
f 63/107/64 56/106/64 3/105/64
f 65/103/65 61/99/65 64/102/65
f 50/88/9 49/87/9 59/97/9
f 62/100/66 3/3/66 28/28/66
f 63/101/67 3/3/67 62/100/67
f 59/97/68 61/99/68 65/103/68
f 48/76/69 51/89/69 23/23/69
f 2/2/70 3/3/70 53/91/70
f 57/95/71 60/98/71 49/87/71
f 60/98/72 56/94/72 63/101/72
f 61/99/65 63/101/65 64/102/65

usemtl Material.004 (Instance)
usemap Material.004 (Instance)
f 30/110/73 66/109/73 4/108/73
f 68/112/74 67/111/74 5/5/74
f 1/77/75 66/109/75 30/110/75
f 68/114/76 5/113/76 4/108/76
f 10/42/77 27/27/77 69/115/77
f 67/117/78 27/56/78 5/116/78
f 47/67/79 66/109/79 1/77/79
f 66/109/80 68/114/80 4/108/80
f 27/27/81 67/111/81 69/115/81
