# Blender v2.80 (sub 75) OBJ File: 'ParHarbor.blend'
# www.blender.org
mtllib ParHarbor_terrain.mtl
o Cube_Cube.001
v -33.801739 5.928717 33.801739
v 33.801739 5.928717 33.801739
v 33.801739 -2.580719 -33.801739
v 28.168118 -2.580719 -33.801739
v -12.154673 -2.580300 -29.334436
v -25.791605 -2.580719 -34.029675
v -17.252758 0.293658 -28.417093
v 4.411074 0.293635 -31.664366
v 33.794704 0.293676 -33.801739
v -41.381931 0.293650 -3.081159
v -28.168119 0.293676 -33.801743
v 33.801739 0.293676 -9.218656
v 33.801739 3.869240 -3.072884
v 33.801777 3.869237 16.726681
v 28.168118 0.353676 -3.072884
v 28.168119 0.353676 15.364429
v 33.801739 3.869241 27.655968
v 29.103394 3.869078 21.509912
v 11.267244 3.869240 21.510197
v 9.392546 0.353706 16.047344
v 6.882368 3.868961 27.655184
v -4.610569 0.298124 2.835206
v 3.755332 0.344962 -3.914962
v -3.759681 0.354003 21.510769
v -11.363022 0.297598 -4.363436
v -11.267245 3.869240 3.072886
v -11.752072 0.354747 12.318472
v -7.039348 3.869118 27.655628
v -18.143869 3.868997 12.291542
v 6.420631 -2.580499 -37.035454
v 11.267247 0.293676 -44.164948
v 28.168118 0.293676 -44.164948
v 16.900867 -2.580719 -56.279758
v 8.372081 -2.580719 -53.451241
v 11.267247 0.293676 -56.279758
v 16.900869 0.293676 -56.279758
v 28.168118 -2.580719 -56.279758
v 11.267247 6.940764 -44.164948
v 28.168118 6.940764 -44.164948
v 28.168118 6.940764 -56.279758
v 11.267247 6.940764 -56.279758
v -77.559349 22.791254 33.801739
v -77.559349 14.233326 -31.754845
v -77.559349 22.791254 21.510197
v -77.559349 31.401108 9.616558
v -77.559349 37.423603 3.072884
v -77.559349 37.423603 -3.072886
v -77.559349 24.749018 -7.099052
v -77.559349 22.791254 -21.510197
v -41.511887 3.869244 3.078888
v -41.914688 3.869103 27.041424
v -48.410759 12.210990 44.803795
v -60.112289 28.007906 0.498342
v -61.643291 22.790890 -9.493884
v -59.834461 22.788282 33.758575
v -59.397823 22.791254 -21.510197
v -59.397823 22.791254 21.510197
v -59.397823 14.235099 -27.655968
v -59.647846 14.234949 -33.740112
v -62.680332 31.516060 9.592325
v -57.518330 18.102959 41.062145
v -53.308762 14.151044 -3.072886
v -77.559296 -2.580712 -33.740032
v -50.654499 17.545307 8.692734
v -46.768688 12.076652 -20.795012
v -41.459160 0.293734 -33.603088
v -46.022785 10.472902 21.507595
v 33.801739 5.928717 60.810238
v -40.720654 5.929552 60.835049
vt 0.875000 0.500491
vt 0.875286 0.613636
vt 0.790298 0.613076
vt 0.813373 0.500000
vt 0.735980 0.500000
vt 0.625000 0.437500
vt 0.375000 0.479167
vt 0.375000 0.437500
vt 0.625000 0.479167
vt 0.625000 0.416667
vt 0.625000 0.416667
vt 0.875000 0.500000
vt 0.875000 0.507569
vt 0.875000 0.522727
vt 0.875000 0.651809
vt 0.875000 0.658019
vt 0.875000 0.720312
vt 0.875000 0.539298
vt 0.875000 0.545455
vt 0.875000 0.589891
vt 0.875000 0.626843
vt 0.875000 0.613636
vt 0.875000 0.750000
vt 0.878814 0.750000
vt 0.625000 0.750000
vt 0.625000 0.750000
vt 0.708333 0.500000
vt 0.625026 0.500000
vt 0.645833 0.500000
vt 0.854167 0.500000
vt 0.875000 0.590909
vt 0.875000 0.613636
vt 0.875000 0.636364
vt 0.625000 0.416667
vt 0.708333 0.500000
vt 0.645833 0.500000
vt 0.708333 0.500000
vt 0.875000 0.545455
vt 0.875000 0.749840
vt 0.875000 0.704545
vt 0.875000 0.750000
vt 0.875000 0.704545
vt 0.875000 0.658795
vt 0.875000 0.750000
vt 0.875646 0.636616
vt 0.875000 0.750000
vt 0.625000 0.416667
vt 0.645833 0.500000
vt 0.375000 0.500000
vt 0.375000 0.479167
vt 0.625000 0.479167
vt 0.375000 0.250000
vt 0.625000 0.250000
vt 0.625000 0.250000
vt 0.875000 0.725239
vt 0.625000 0.250000
vt 0.625000 0.479167
vt 0.724549 0.727273
vt 0.625000 0.727273
vt 0.777304 0.728049
vt 0.812342 0.672716
vt 0.791667 0.636364
vt 0.791667 0.670554
vt 0.769744 0.626150
vt 0.729643 0.617639
vt 0.756372 0.697642
vt 0.708333 0.704545
vt 0.642375 0.704545
vt 0.716398 0.683652
vt 0.645833 0.681818
vt 0.625000 0.590909
vt 0.645833 0.613636
vt 0.625000 0.613636
vt 0.625000 0.686856
vt 0.625000 0.311627
vt 0.375000 0.270748
vt 0.625000 0.270833
vt 0.625000 0.389020
vt 0.375000 0.405306
vt 0.375000 0.328879
vt 0.375000 0.416667
vn -0.0001 1.0000 0.0000
vn -0.0000 1.0000 -0.0002
vn 0.0000 0.0000 -1.0000
vn 0.6083 0.7933 -0.0250
vn 0.7579 0.6470 0.0832
vn 0.6384 0.7604 0.1193
vn 0.7561 0.6533 -0.0385
vn 0.8140 0.4829 -0.3229
vn 0.0000 1.0000 -0.0000
vn 0.0000 1.0000 -0.0001
vn 0.3374 0.2850 -0.8972
vn 0.4396 0.8727 -0.2125
vn 0.4749 0.8800 0.0000
vn -1.0000 0.0000 0.0000
vn 0.0002 1.0000 0.0000
vn 0.1431 0.7596 -0.6345
vn 0.0000 0.8100 0.5864
vn 0.6391 0.6938 0.3319
vn 0.6517 0.7428 0.1536
vn 0.6773 0.7353 0.0243
vn 0.7393 0.6485 0.1816
vn 0.8323 0.5543 0.0051
vn 0.4668 0.8763 0.1194
vn 0.0001 1.0000 -0.0002
vn 0.0384 0.8834 -0.4671
vn -0.0046 0.7358 0.6772
vn 0.1011 0.9858 -0.1339
vn 0.0000 1.0000 0.0002
vn 0.0000 0.5834 -0.8122
vn -0.0053 0.8062 0.5916
vn 0.4758 0.5131 -0.7144
vn 0.7907 0.4846 -0.3742
vn 0.7123 0.6150 -0.3381
vn 0.4417 -0.8645 -0.2398
vn -0.1094 0.1165 -0.9871
vn 0.0000 0.0000 1.0000
vn 1.0000 0.0000 0.0000
vn 0.0963 0.9140 -0.3940
vn 0.0041 -0.0044 -1.0000
vn 0.4103 0.7495 -0.5195
vn 0.9108 0.4129 -0.0023
vn 0.7124 0.6134 -0.3410
vn 0.8314 0.5540 0.0439
vn 0.7428 0.6392 0.1993
vn 0.5451 0.8383 -0.0067
vn 0.8437 0.5367 0.0142
vn -0.0000 0.9482 -0.3177
vn 0.4524 0.8255 0.3375
vn 0.4559 0.8268 -0.3295
vn -0.0265 0.9993 -0.0259
vn 0.0004 1.0000 -0.0002
vn -0.0032 1.0000 0.0029
vn 0.0000 1.0000 0.0001
vn -0.0180 0.8691 -0.4944
vn -0.4747 0.7607 -0.4426
vn -0.0001 0.8649 -0.5020
vn -0.0000 0.8680 -0.4965
vn 0.4229 0.8147 -0.3967
vn 0.4544 0.8245 0.3372
vn 0.3587 0.8798 -0.3118
vn -0.0001 1.0000 -0.0004
vn -0.4877 0.8007 -0.3479
vn -0.0000 0.8409 -0.5412
vn 0.0175 -0.8668 -0.4983
vn -0.5294 0.8484 0.0000
vn 0.0001 1.0000 -0.0000
vn -0.0011 0.9999 -0.0107
vn -0.4118 0.8166 -0.4045
vn 0.0052 0.9548 -0.2972
vn -0.0186 0.9014 -0.4327
vn -0.1300 0.9408 -0.3130
vn -0.0003 1.0000 -0.0003
vn 0.4054 0.4004 -0.8218
vn -0.2166 0.8248 -0.5224
vn -0.0149 0.0668 -0.9977
vn -0.1480 0.0526 -0.9876
vn -0.7046 0.7096 0.0000
vn -0.8431 0.2746 -0.4624
vn -0.0056 0.1171 -0.9931
vn 0.2445 0.6603 -0.7101
vn -0.5822 0.8101 -0.0692
usemtl Material.001
s off
f 66/1/1 10/2/1 25/3/1
f 7/4/2 25/3/2 8/5/2
f 36/6/3 37/7/3 33/8/3
f 36/6/3 40/9/3 37/7/3
f 35/10/3 41/11/3 36/6/3
f 59/12/1 43/13/1 58/14/1
f 59/12/4 58/14/4 66/1/4
f 64/15/5 60/16/5 67/17/5
f 65/18/6 56/19/6 54/20/6
f 64/15/7 53/21/7 60/16/7
f 62/22/8 53/21/8 64/15/8
f 1/23/9 69/24/9 2/25/9
f 2/25/9 69/24/9 68/26/9
f 31/27/9 9/28/9 32/29/9
f 25/3/10 11/30/10 66/1/10
f 53/21/11 48/31/11 47/32/11
f 46/33/12 60/16/12 53/21/12
f 53/21/13 47/32/13 46/33/13
f 35/10/14 38/34/14 41/11/14
f 38/35/9 40/36/9 41/37/9
f 49/38/9 54/20/9 56/19/9
f 36/6/3 41/11/3 40/9/3
f 55/39/15 44/40/15 42/41/15
f 49/38/16 58/14/16 43/13/16
f 57/42/17 45/43/17 44/40/17
f 67/17/18 60/16/18 57/42/18
f 54/20/19 62/22/19 65/18/19
f 67/17/20 57/42/20 55/39/20
f 61/44/21 67/17/21 55/39/21
f 67/17/22 50/45/22 64/15/22
f 1/23/23 52/46/23 69/24/23
f 31/27/9 8/5/9 9/28/9
f 25/3/24 7/4/24 11/30/24
f 53/21/25 54/20/25 48/31/25
f 46/33/26 45/43/26 60/16/26
f 35/10/14 31/47/14 38/34/14
f 38/35/9 39/48/9 40/36/9
f 49/38/27 48/31/27 54/20/27
f 55/39/28 57/42/28 44/40/28
f 49/38/29 56/19/29 58/14/29
f 57/42/30 60/16/30 45/43/30
f 58/14/31 56/19/31 65/18/31
f 54/20/32 53/21/32 62/22/32
f 62/22/33 64/15/33 50/45/33
usemtl Material.002
f 9/28/3 3/49/3 4/50/3
f 4/50/34 32/51/34 9/28/34
f 63/52/35 43/53/35 59/54/35
f 32/29/36 38/35/36 31/27/36
f 4/50/37 37/7/37 32/51/37
f 1/23/38 51/55/38 52/46/38
f 66/56/39 63/52/39 59/54/39
f 32/51/37 40/9/37 39/57/37
f 32/29/36 39/48/36 38/35/36
f 58/14/40 65/18/40 66/1/40
f 65/18/41 10/2/41 66/1/41
f 62/22/42 50/45/42 10/2/42
f 67/17/43 52/46/43 51/55/43
f 32/51/37 37/7/37 40/9/37
f 65/18/44 62/22/44 10/2/44
f 67/17/45 61/44/45 52/46/45
f 67/17/46 51/55/46 50/45/46
usemtl Material.003
f 21/58/47 2/25/47 17/59/47
f 28/60/47 2/25/47 21/58/47
f 51/55/9 28/60/9 29/61/9
f 26/62/48 29/61/48 27/63/48
f 29/61/49 28/60/49 27/63/49
f 22/64/50 27/63/50 23/65/50
f 27/63/51 24/66/51 23/65/51
f 25/3/52 22/64/52 23/65/52
f 19/67/53 21/58/53 18/68/53
f 20/69/54 18/68/54 16/70/54
f 12/71/55 15/72/55 13/73/55
f 18/68/9 17/59/9 14/74/9
f 50/45/9 51/55/9 29/61/9
f 28/60/47 1/23/47 2/25/47
f 26/62/56 10/2/56 50/45/56
f 21/58/57 24/66/57 28/60/57
f 26/62/9 50/45/9 29/61/9
f 25/3/58 26/62/58 22/64/58
f 22/64/59 26/62/59 27/63/59
f 27/63/60 28/60/60 24/66/60
f 23/65/61 24/66/61 20/69/61
f 15/72/9 20/69/9 16/70/9
f 8/5/2 25/3/2 9/28/2
f 19/67/62 20/69/62 21/58/62
f 20/69/63 19/67/63 18/68/63
f 25/3/64 23/65/64 15/72/64
f 13/73/65 16/70/65 14/74/65
f 18/68/9 21/58/9 17/59/9
f 9/28/66 25/3/66 12/71/66
f 12/71/67 25/3/67 15/72/67
f 14/74/68 16/70/68 18/68/68
f 1/23/69 28/60/69 51/55/69
f 26/62/70 25/3/70 10/2/70
f 21/58/71 20/69/71 24/66/71
f 15/72/72 23/65/72 20/69/72
f 13/73/65 15/72/65 16/70/65
usemtl Material.004
f 7/75/73 6/76/73 11/77/73
f 8/78/74 30/79/74 5/80/74
f 11/77/75 6/76/75 66/56/75
f 7/75/76 8/78/76 5/80/76
f 34/81/77 31/47/77 35/10/77
f 8/78/78 31/47/78 30/79/78
f 66/56/79 6/76/79 63/52/79
f 7/75/80 5/80/80 6/76/80
f 34/81/81 30/79/81 31/47/81
