# Made using Asset Forge (www.assetforge.io) version 1.3 

mtllib Gol_Track_Piece.mtl 

g straight_0

v 0.4 0 -0.5
v 0.5 0 -0.5
v 0.4 0.1 -0.5
v 0.5 0.2 -0.5
v 0.4 0.2 -0.5
v 0.5 0 0.5
v 0.4 0 0.5
v 0.5 0.2 0.5
v 0.4 0.1 0.5
v 0.4 0.2 0.5
v -0.4 0.2 -0.5
v -0.4 0.2 0.5
v -0.5 0.2 -0.5
v -0.5 0.2 0.5
v -0.4 0.1 -0.5
v -0.4 0.1 0.5
v -0.4 0 0.5
v -0.4 0 -0.5
v -0.5 0 0.5
v -0.5 0 -0.5
vn 0 0 -1
vn 0 0 1
vn -1 0 0
vn 0 1 0
vn 1 0 0
vn 0 -1 0
vt -0.4 0
vt -0.5 0
vt -0.4 0.1
vt -0.5 0.2
vt -0.4 0.2
vt 0.5 0
vt 0.4 0
vt 0.5 0.2
vt 0.4 0.1
vt 0.4 0.2
vt -0.5 0.1
vt 0.5 0.1
vt -0.5 -0.5
vt -0.5 0.5
vt -0.4 -0.5
vt -0.4 0.5
vt 0.4 -0.5
vt 0.4 0.5
vt 0.5 -0.5
vt 0.5 0.5

usemtl golfBorder (Instance)
usemap golfBorder (Instance)
f 3/3/1 2/2/1 1/1/1
f 2/2/1 3/3/1 4/4/1
f 4/4/1 3/3/1 5/5/1
f 8/8/2 7/7/2 6/6/2
f 7/7/2 8/8/2 9/9/2
f 9/9/2 8/8/2 10/10/2
f 9/12/3 5/4/3 3/11/3
f 5/4/3 9/12/3 10/8/3
f 5/15/4 8/14/4 4/13/4
f 8/14/4 5/15/4 10/16/4
f 13/19/4 12/18/4 11/17/4
f 12/18/4 13/19/4 14/20/4
f 12/4/5 15/12/5 11/8/5
f 15/12/5 12/4/5 16/11/5
f 7/15/6 2/14/6 6/13/6
f 2/14/6 7/15/6 1/16/6
f 1/16/6 7/15/6 17/17/6
f 1/16/6 17/17/6 18/18/6
f 18/18/6 17/17/6 19/19/6
f 18/18/6 19/19/6 20/20/6
f 8/4/5 2/6/5 4/8/5
f 2/6/5 8/4/5 6/2/5
f 13/8/1 18/7/1 20/6/1
f 18/7/1 13/8/1 15/9/1
f 15/9/1 13/8/1 11/10/1
f 16/3/2 19/2/2 17/1/2
f 19/2/2 16/3/2 14/4/2
f 14/4/2 16/3/2 12/5/2
f 19/6/3 13/4/3 20/2/3
f 13/4/3 19/6/3 14/8/3

usemtl golfGreen (Instance)
usemap golfGreen (Instance)
f 9/9/2 17/1/2 7/7/2
f 17/1/2 9/9/2 16/3/2
f 15/9/1 1/1/1 18/7/1
f 1/1/1 15/9/1 3/3/1
f 15/17/4 9/16/4 3/15/4
f 9/16/4 15/17/4 16/18/4
g straight_1


usemtl golfBorder (Instance) (Instance)
usemap golfBorder (Instance) (Instance)
f 3/3/1 2/2/1 1/1/1
f 2/2/1 3/3/1 4/4/1
f 4/4/1 3/3/1 5/5/1
f 8/8/2 7/7/2 6/6/2
f 7/7/2 8/8/2 9/9/2
f 9/9/2 8/8/2 10/10/2
f 9/12/3 5/4/3 3/11/3
f 5/4/3 9/12/3 10/8/3
f 5/15/4 8/14/4 4/13/4
f 8/14/4 5/15/4 10/16/4
f 13/19/4 12/18/4 11/17/4
f 12/18/4 13/19/4 14/20/4
f 12/4/5 15/12/5 11/8/5
f 15/12/5 12/4/5 16/11/5
f 7/15/6 2/14/6 6/13/6
f 2/14/6 7/15/6 1/16/6
f 1/16/6 7/15/6 17/17/6
f 1/16/6 17/17/6 18/18/6
f 18/18/6 17/17/6 19/19/6
f 18/18/6 19/19/6 20/20/6
f 8/4/5 2/6/5 4/8/5
f 2/6/5 8/4/5 6/2/5
f 13/8/1 18/7/1 20/6/1
f 18/7/1 13/8/1 15/9/1
f 15/9/1 13/8/1 11/10/1
f 16/3/2 19/2/2 17/1/2
f 19/2/2 16/3/2 14/4/2
f 14/4/2 16/3/2 12/5/2
f 19/6/3 13/4/3 20/2/3
f 13/4/3 19/6/3 14/8/3

usemtl golfGreen (Instance) (Instance)
usemap golfGreen (Instance) (Instance)
f 9/9/2 17/1/2 7/7/2
f 17/1/2 9/9/2 16/3/2
f 15/9/1 1/1/1 18/7/1
f 1/1/1 15/9/1 3/3/1
f 15/17/4 9/16/4 3/15/4
f 9/16/4 15/17/4 16/18/4
g straight_2


usemtl golfBorder (Instance) (Instance) (Instance)
usemap golfBorder (Instance) (Instance) (Instance)
f 3/3/1 2/2/1 1/1/1
f 2/2/1 3/3/1 4/4/1
f 4/4/1 3/3/1 5/5/1
f 8/8/2 7/7/2 6/6/2
f 7/7/2 8/8/2 9/9/2
f 9/9/2 8/8/2 10/10/2
f 9/12/3 5/4/3 3/11/3
f 5/4/3 9/12/3 10/8/3
f 5/15/4 8/14/4 4/13/4
f 8/14/4 5/15/4 10/16/4
f 13/19/4 12/18/4 11/17/4
f 12/18/4 13/19/4 14/20/4
f 12/4/5 15/12/5 11/8/5
f 15/12/5 12/4/5 16/11/5
f 7/15/6 2/14/6 6/13/6
f 2/14/6 7/15/6 1/16/6
f 1/16/6 7/15/6 17/17/6
f 1/16/6 17/17/6 18/18/6
f 18/18/6 17/17/6 19/19/6
f 18/18/6 19/19/6 20/20/6
f 8/4/5 2/6/5 4/8/5
f 2/6/5 8/4/5 6/2/5
f 13/8/1 18/7/1 20/6/1
f 18/7/1 13/8/1 15/9/1
f 15/9/1 13/8/1 11/10/1
f 16/3/2 19/2/2 17/1/2
f 19/2/2 16/3/2 14/4/2
f 14/4/2 16/3/2 12/5/2
f 19/6/3 13/4/3 20/2/3
f 13/4/3 19/6/3 14/8/3

usemtl golfGreen (Instance) (Instance) (Instance)
usemap golfGreen (Instance) (Instance) (Instance)
f 9/9/2 17/1/2 7/7/2
f 17/1/2 9/9/2 16/3/2
f 15/9/1 1/1/1 18/7/1
f 1/1/1 15/9/1 3/3/1
f 15/17/4 9/16/4 3/15/4
f 9/16/4 15/17/4 16/18/4
