# Blender v2.80 (sub 75) OBJ File: 'PH_lighthouse.blend'
# www.blender.org
mtllib PH_lighthouse.mtl
o Cylinder
v 0.999656 21.139042 0.001010
v 0.999644 23.308884 0.001432
v -1.000000 0.348999 -0.226934
v -0.906815 2.348999 -0.225304
v 0.906815 0.348997 -0.225304
v 1.000000 2.348999 -0.226934
v 0.000000 0.123392 -1.000000
v 0.000000 23.123392 -1.000000
v 0.707107 0.123392 -0.707107
v 0.707107 23.123392 -0.707107
v 1.000000 0.123392 0.000000
v 0.707107 0.123392 0.707107
v -0.000000 0.123392 1.000000
v -0.707107 0.123392 0.707107
v -1.000000 0.123392 -0.000000
v -0.999435 23.311535 0.001635
v -0.707107 0.123392 -0.707107
v -0.707107 23.123392 -0.707107
v -0.000000 -0.527257 -4.926684
v -0.000000 19.472744 -3.382699
v 3.483691 -0.527257 -3.483691
v 2.391929 19.472744 -2.391929
v 4.926684 -0.527257 0.000000
v 3.382699 19.472744 0.000000
v 3.483691 -0.527257 3.483691
v 2.391929 19.472744 2.391929
v -0.000000 -0.527257 4.926684
v -0.000000 19.472744 3.382699
v -3.483692 -0.527257 3.483691
v -2.391930 19.472744 2.391929
v -4.926684 -0.527257 -0.000000
v -3.382699 19.472744 -0.000000
v -3.483692 -0.527257 -3.483691
v -2.391930 19.472744 -2.391929
v 1.998799 20.339577 -1.998799
v 0.000000 20.339577 -2.826729
v 2.826729 20.339577 0.000000
v 1.998799 20.339577 1.998799
v -0.000000 20.339577 2.826729
v -1.998800 20.339577 1.998799
v -2.826729 20.339577 -0.000000
v -1.998800 20.339577 -1.998799
v 3.255937 20.339577 -3.255937
v 0.000000 20.339577 -4.604590
v 4.604590 20.339577 0.000000
v 3.255937 20.339577 3.255937
v -0.000000 20.339577 4.604590
v -3.255938 20.339577 3.255936
v -4.604590 20.339577 -0.000000
v -3.255938 20.339577 -3.255936
v 1.998799 24.214653 -1.998799
v 0.000000 24.214653 -2.826729
v 2.826729 24.214653 0.000000
v 1.998799 24.214653 1.998799
v -1.998800 24.214653 1.998799
v -2.826729 24.214653 -0.000000
v -1.998800 24.214653 -1.998799
v 0.000034 24.212797 2.826727
v 0.707107 2.348999 0.707107
v 1.000000 2.348999 0.000000
v 0.906001 2.348999 -0.226934
v -0.000000 2.348999 1.000000
v 1.000000 2.348999 4.290425
v 0.707107 0.348999 0.707107
v 1.000000 0.348999 0.000000
v 1.000000 0.348999 4.444823
v -0.000000 0.348999 4.859037
v -1.000000 0.348999 0.000000
v -0.707107 0.348999 0.707107
v -0.906001 0.348999 -0.226934
v -0.000000 0.348999 1.000000
v -1.000000 0.349000 4.444824
v -1.000000 2.348999 0.000000
v -0.707107 2.348999 0.707107
v -0.000000 2.348999 4.704639
v -1.000000 2.349000 4.290425
v -1.000000 0.426038 0.000000
v -0.000000 23.316172 2.826729
v 1.000000 23.316170 2.412515
v 1.000000 21.139042 2.412515
v -0.000000 21.139042 2.826729
v -1.000000 21.139042 2.412515
v -0.707107 21.139042 0.707107
v -0.000000 21.139042 1.000000
v 0.707107 21.139042 0.707107
v -0.999717 21.139042 0.000982
v -1.000000 23.316170 2.412515
v -0.015347 9.472743 -1.233058
v 0.691760 9.472744 -0.940164
v -0.722454 9.472744 -0.940164
v -0.015347 9.472743 -4.353003
v 2.897895 9.472738 -3.146299
v 4.104599 9.472740 -0.233058
v 2.897895 9.472740 2.680184
v -4.135293 9.472743 -0.233057
v -2.928589 9.472741 -3.146299
v -0.722454 9.472743 0.474049
v -0.015347 9.472742 3.886889
v 0.984653 9.472744 -0.233057
v -1.015347 9.472747 -0.233057
v 0.691760 9.472742 0.474049
v -0.015347 9.472742 0.766943
v -2.928589 9.472745 2.680184
v 1.994068 24.584370 -1.987377
v -0.004731 24.584370 -2.815307
v 2.821998 24.584370 0.011422
v 1.994068 24.584370 2.010221
v -0.004731 24.584370 2.838151
v -2.003531 24.584370 2.010221
v -2.831460 24.584370 0.011422
v -2.003531 24.584370 -1.987377
v 0.819516 25.856705 -0.812826
v -0.004731 25.856705 -1.154240
v 1.160931 25.856705 0.011422
v 0.819516 25.856705 0.835669
v -0.004731 25.856705 1.177084
v -0.828979 25.856705 0.835669
v -1.170393 25.856705 0.011422
v -0.828979 25.856705 -0.812826
v -0.416855 25.220537 1.836910
v 2.772954 24.248625 -2.777740
v 0.003385 24.248625 -3.924934
v 3.925340 24.228966 -0.008227
v 2.781510 24.200851 2.769768
v 0.003460 24.180771 3.924936
v -2.777796 24.180771 2.772902
v -3.925346 24.200851 -0.008303
v -2.769818 24.228966 -2.781452
v -3.930072 24.570057 0.019649
v 3.920615 24.598171 0.019725
v -2.777686 24.550398 2.789162
v -2.786242 24.598171 -2.758345
v 2.773064 24.618252 -2.761481
v -0.008191 24.618252 -3.913515
v -0.008116 24.550398 3.936356
v 2.765086 24.570057 2.792874
vt 0.375000 0.509630
vt 0.625000 0.500000
vt 0.363352 0.500000
vt 0.125000 0.500000
vt 0.125000 0.509630
vt 0.136750 0.500000
vt 0.375000 0.761252
vt 0.250000 1.000000
vt 0.250000 0.761252
vt 0.375000 1.000000
vt 0.250000 1.000000
vt 0.500000 1.000000
vt 0.625000 1.000000
vt 0.500000 1.000000
vt 0.125000 1.000000
vt 0.125000 1.000000
vt 0.875000 1.000000
vt 0.750000 1.000000
vt 0.750000 1.000000
vt 0.375000 1.000000
vt 0.000000 1.000000
vt 0.000000 1.000000
vt 1.000000 1.000000
vt 0.875000 1.000000
vt 0.625000 1.000000
vt 0.625000 0.509630
vt 1.000000 1.000000
vt 0.250044 0.084543
vt 0.250000 0.084562
vt 0.133017 0.133018
vt 0.625000 0.488250
vt 0.500000 0.761252
vt 0.625000 0.761252
vt 0.000000 0.761252
vt 0.125000 0.761252
vt 0.750000 0.761252
vt 0.875000 0.761252
vt 1.000000 0.761252
vt 0.084562 0.250000
vt 0.084562 0.250000
vt 0.366983 0.133017
vt 0.415438 0.250000
vt 0.366983 0.133017
vt 0.250000 0.084562
vt 0.366983 0.366982
vt 0.415438 0.250000
vt 0.133017 0.366982
vt 0.133017 0.366982
vt 0.191509 0.108790
vt 0.133017 0.133018
vt 0.250000 0.415438
vt 0.366983 0.366982
vt 0.250000 0.415438
vt 0.366983 0.133017
vt 0.250000 0.084562
vt 0.415438 0.250000
vt 0.366983 0.366982
vt 0.133017 0.366982
vt 0.084562 0.250000
vt 0.084562 0.250000
vt 0.366983 0.133017
vt 0.415438 0.250000
vt 0.133017 0.133018
vt 0.133017 0.133018
vt 0.366983 0.366982
vt 0.250000 0.415438
vt 0.133017 0.366982
vt 0.250000 0.415438
vt 0.250000 0.084562
vt 1.000000 0.500000
vt 0.875000 0.500000
vt 0.750000 0.500000
vt 0.625000 0.500000
vt 0.537692 0.571906
vt 0.536543 0.521906
vt 0.375000 0.500000
vt 0.463457 0.521906
vt 0.462308 0.571906
vt 0.250000 0.500000
vt 0.125000 0.500000
vt 0.366983 0.366982
vt 0.250000 0.490000
vt 0.250000 0.415438
vt 0.415438 0.250000
vt 0.419706 0.419706
vt 0.419706 0.080294
vt 0.490000 0.250000
vt 0.250000 0.084562
vt 0.366983 0.133017
vt 0.133017 0.133018
vt 0.250000 0.010000
vt 0.084562 0.250000
vt 0.080294 0.080294
vt 0.133017 0.366982
vt 0.010000 0.250000
vt 0.080294 0.419706
vt 0.500000 0.521906
vt 0.500000 0.500000
vt 0.000000 0.500000
vt 0.500000 0.571906
vt 0.133017 0.366982
vt 0.191474 0.108804
vt 0.133017 0.133018
vt 0.366983 0.133017
vt 0.366983 0.366982
vt 0.250000 0.415438
vt 0.084562 0.250000
vt 0.308526 0.108804
vt 0.308526 0.108804
vt 0.415438 0.250000
vt 0.191474 0.108804
vt 0.250000 0.084562
vt 0.250000 0.084562
vt 0.250000 0.084562
vt 0.375000 0.602329
vt 0.623732 0.499965
vt 0.375000 0.499957
vt 0.249990 0.542389
vt 0.161611 0.529962
vt 0.125000 0.602329
vt 0.625000 0.602329
vt 0.875000 0.602329
vt 0.875000 0.500000
vt 0.375000 0.261750
vt 0.625000 0.261648
vt 0.375000 0.250000
vt 0.636750 0.500000
vt 0.875000 0.713031
vt 1.000000 1.000000
vt 1.000000 0.713031
vt 0.500000 0.500000
vt 0.625000 0.504905
vt 0.625000 0.500000
vt 0.375000 0.500000
vt 0.500000 0.504905
vt 0.250000 0.500000
vt 0.250000 0.506579
vt 0.250000 0.504905
vt 0.250000 0.548383
vt 0.125000 0.500000
vt -0.000000 0.713031
vt 0.125000 1.000000
vt 0.125000 0.713031
vt 0.580294 0.080294
vt 0.919706 0.080294
vt 0.919706 0.419706
vt 0.919706 0.080294
vt 0.580294 0.080294
vt 0.580294 0.419706
vt 0.625000 0.691691
vt 0.875000 0.691691
vt 0.750000 0.552064
vt 0.375000 0.713031
vt 0.500000 0.956862
vt 0.500000 0.713031
vt 0.625000 0.956862
vt 0.625000 0.713031
vt 0.375000 0.240370
vt 0.625000 0.058309
vt 0.375000 0.051757
vt 0.625000 0.240370
vt 0.125000 0.698243
vt 0.375000 0.698243
vt 0.250000 0.552064
vt 0.375000 0.250035
vt 0.625000 0.147671
vt 0.375000 0.147671
vt 0.125035 0.500000
vt 0.249985 0.619894
vt 0.338410 0.529963
vt 0.750000 0.619906
vt 0.750000 0.548383
vt 0.750000 0.713031
vt 0.875000 0.500000
vt 0.750000 0.500000
vt 0.375000 0.504905
vt 0.250000 0.490000
vt 0.419706 0.419706
vt 0.489896 0.249749
vt 0.010104 0.249749
vt 0.080294 0.419706
vt 0.250000 0.713031
vt 0.750000 0.490000
vt 0.580294 0.419706
vt 0.510000 0.250000
vt 0.750000 0.010000
vt 0.990000 0.250000
vt 0.750000 0.490000
vt 0.919706 0.419706
vt 0.990000 0.250000
vt 0.750000 0.010000
vt 0.510000 0.250000
vt 0.661612 0.539635
vt 0.750000 0.709268
vt 0.875000 0.509630
vt 0.838388 0.539635
vt 0.749815 0.956862
vt 0.250185 0.956862
vt 0.161612 0.539635
vt 0.250000 0.715820
vt 0.338388 0.539635
vt 0.624061 0.250026
vt 0.375000 0.548383
vt 0.500000 0.548383
vt 0.625000 0.548383
vt 0.250185 1.000000
vt 0.375000 0.956862
vt 0.000000 0.500000
vt 0.875000 1.000000
vt 1.000000 0.500000
vt 0.749815 1.000000
vt 0.000000 1.000000
vn -0.9232 0.0433 0.3818
vn 0.0000 1.0000 0.0000
vn -0.9222 0.0605 0.3820
vn -0.5627 -0.7931 0.2331
vn 0.2331 -0.7931 0.5627
vn -0.5627 -0.7931 -0.2331
vn 0.5627 -0.7931 -0.2331
vn -0.2331 -0.7931 0.5627
vn -0.2331 -0.7931 -0.5627
vn 0.2331 -0.7931 -0.5627
vn 0.5627 -0.7931 0.2331
vn -1.0000 0.0000 0.0000
vn -0.9296 -0.0232 0.3679
vn 0.0000 0.0008 1.0000
vn -0.3823 0.0471 0.9229
vn 0.3823 0.0459 0.9229
vn -0.3811 0.0899 -0.9201
vn -0.9210 0.0782 -0.3815
vn 0.9223 0.0577 0.3820
vn 0.9212 0.0754 -0.3816
vn 0.3812 0.0887 -0.9202
vn -0.5897 0.7698 0.2442
vn 0.2442 0.7698 0.5897
vn 0.5897 0.7698 -0.2442
vn -0.5897 0.7698 -0.2442
vn -0.2442 0.7698 0.5897
vn 0.5897 0.7698 0.2442
vn 0.2442 0.7698 -0.5897
vn -0.2442 0.7698 -0.5897
vn 0.0057 0.9995 0.0309
vn 0.9296 0.0232 -0.3679
vn 0.0058 0.9999 0.0126
vn -0.0127 0.9998 0.0124
vn -0.9246 0.0170 -0.3805
vn 0.9246 -0.0170 0.3805
vn -0.9232 -0.0166 0.3840
vn 0.9232 0.0166 -0.3840
vn -0.3824 -0.0405 0.9231
vn -0.3839 0.0407 -0.9225
vn 0.3824 0.0405 -0.9231
vn 0.3839 -0.0407 0.9225
vn -0.0128 0.9994 0.0309
vn -0.0130 0.9999 0.0054
vn 0.0125 0.9999 0.0052
vn 0.0128 0.9994 0.0308
vn 0.0054 0.9999 0.0130
vn -0.0125 0.9999 -0.0052
vn -0.0308 0.9994 0.0128
vn -0.9229 -0.0170 -0.3847
vn 0.9229 0.0170 0.3847
vn -0.9237 -0.0407 0.3809
vn 0.9237 0.0407 -0.3809
vn -0.3812 0.0166 -0.9243
vn 0.3812 -0.0166 0.9243
vn -0.0259 0.9995 0.0179
vn -0.0130 0.9999 0.0048
vn 0.0002 0.9998 0.0177
vn 0.3821 0.0535 -0.9226
vn 0.9218 0.0669 -0.3818
vn 0.9206 0.0846 0.3813
vn 0.3817 0.0711 0.9215
vn -0.3817 0.0711 0.9215
vn -0.9220 0.0641 -0.3819
vn -0.3822 0.0523 -0.9226
vn 0.3805 0.1063 0.9186
vn -0.3806 0.1047 0.9188
vn -0.9208 0.0818 0.3814
vn 0.4071 0.0968 0.9082
vn -0.4059 0.0956 0.9089
vn -0.9239 0.0000 -0.3827
vn -0.3827 0.0000 0.9239
vn 0.9239 0.0000 0.3827
vn 0.3827 0.0000 -0.9239
vn -0.3827 0.0000 -0.9239
vn -0.9239 0.0000 0.3827
vn 0.3827 0.0000 0.9239
vn 0.9239 0.0000 -0.3827
vn 0.0130 -0.9999 -0.0048
vn 0.0259 -0.9995 -0.0179
vn 0.0128 -0.9994 -0.0309
vn -0.0054 -0.9999 -0.0130
vn 0.0125 -0.9999 0.0052
vn -0.0002 -0.9998 -0.0177
vn 0.0121 -0.9995 -0.0292
vn 0.0308 -0.9994 -0.0128
vn -0.0125 -0.9999 -0.0052
vn 0.0130 -0.9999 -0.0054
vn -0.0057 -0.9995 -0.0309
vn -0.0058 -0.9999 -0.0126
vn -0.0111 -0.9995 -0.0291
vn 0.0121 -0.9994 -0.0315
vn 0.0127 -0.9998 -0.0124
vn -1.0000 -0.0000 0.0001
vn 0.0000 -1.0000 0.0019
vn 0.0000 -0.0008 1.0000
vn 0.0000 -1.0000 0.0000
vn -0.3826 -0.0153 0.9238
vn 1.0000 0.0000 0.0000
vn 0.3826 -0.0162 0.9238
vn 0.3826 0.0180 -0.9237
vn -0.3826 0.0190 -0.9237
vn 1.0000 0.0000 0.0001
vn -0.0013 -1.0000 0.0030
vn -0.9238 0.0105 0.3827
vn 0.0000 0.0000 1.0000
vn -0.1238 -0.9462 0.2988
vn -0.0013 -0.9830 0.1834
vn 0.1253 -0.9449 0.3025
vn 0.9239 -0.0076 0.3827
vn -0.9238 0.0089 -0.3827
vn 0.9239 0.0064 -0.3827
vn 0.9232 -0.0433 0.3818
vn 1.0000 -0.0001 0.0002
vn 0.9238 -0.0105 -0.3827
vn -0.9238 -0.0145 -0.3826
vn 0.3825 -0.0294 -0.9235
vn -0.3825 -0.0310 -0.9234
vn 0.9237 -0.0076 0.3830
vn 0.9238 0.0064 -0.3828
vn 0.3826 0.0237 0.9236
vn 0.9350 0.0104 0.3546
vn -0.9239 -0.0055 0.3827
vn -0.3826 0.0224 0.9236
vn -0.9238 -0.0055 0.3828
vn -0.9320 0.0075 0.3624
vn -0.9238 0.0089 -0.3828
vn 0.9981 -0.0001 -0.0611
vn -0.9979 -0.0000 0.0649
vn 0.9238 0.0145 0.3826
usemtl LH_Red
s off
f 65/1/1 6/2/1 5/3/1
f 3/4/2 68/5/2 70/6/2
f 103/7/3 32/8/3 95/9/3
f 30/10/4 49/11/4 32/8/4
f 28/12/5 46/13/5 47/14/5
f 34/15/6 49/11/6 50/16/6
f 22/17/7 45/18/7 24/19/7
f 28/12/8 48/20/8 30/10/8
f 34/15/9 44/21/9 20/22/9
f 20/23/10 43/24/10 22/17/10
f 24/19/11 46/13/11 26/25/11
f 65/1/12 60/26/12 6/2/12
f 103/7/3 30/10/3 32/8/3
f 30/10/4 48/20/4 49/11/4
f 28/12/5 26/25/5 46/13/5
f 34/15/6 32/8/6 49/11/6
f 22/17/7 43/24/7 45/18/7
f 28/12/8 47/14/8 48/20/8
f 34/15/9 50/16/9 44/21/9
f 20/23/10 44/27/10 43/24/10
f 24/19/11 45/18/11 46/13/11
f 58/28/13 108/29/13 117/30/13
f 5/3/14 6/2/14 61/31/14
f 28/12/15 103/7/15 98/32/15
f 28/12/16 94/33/16 26/25/16
f 34/15/17 91/34/17 96/35/17
f 34/15/18 96/35/18 32/8/18
f 32/8/18 96/35/18 95/9/18
f 26/25/19 94/33/19 24/19/19
f 24/19/19 94/33/19 93/36/19
f 24/19/20 93/36/20 22/17/20
f 22/17/20 93/36/20 92/37/20
f 22/17/21 92/37/21 20/23/21
f 20/23/21 92/37/21 91/38/21
f 20/22/17 91/34/17 34/15/17
f 28/12/15 30/10/15 103/7/15
f 28/12/16 98/32/16 94/33/16
f 110/39/22 117/30/22 118/40/22
f 115/41/2 114/42/2 118/40/2
f 107/43/23 116/44/23 108/29/23
f 104/45/24 114/42/24 106/46/24
f 111/47/25 118/40/25 119/48/25
f 120/49/26 109/50/26 108/29/26
f 106/46/27 115/41/27 107/43/27
f 105/51/28 112/52/28 104/45/28
f 111/47/29 113/53/29 105/51/29
f 110/39/22 109/50/22 117/30/22
f 114/42/2 112/52/2 118/40/2
f 112/52/2 113/53/2 118/40/2
f 113/53/2 119/48/2 118/40/2
f 118/40/2 117/30/2 116/44/2
f 116/44/2 115/41/2 118/40/2
f 107/43/23 115/41/23 116/44/23
f 104/45/24 112/52/24 114/42/24
f 111/47/25 110/39/25 118/40/25
f 106/46/27 114/42/27 115/41/27
f 105/51/28 113/53/28 112/52/28
f 111/47/29 119/48/29 113/53/29
f 120/49/26 117/30/26 109/50/26
f 108/29/26 116/44/26 117/30/26
f 136/54/30 108/29/30 135/55/30
f 58/28/31 120/49/31 108/29/31
f 58/28/31 117/30/31 120/49/31
f 130/56/32 107/43/32 136/54/32
f 133/57/33 106/46/33 130/56/33
f 132/58/34 127/59/34 129/60/34
f 130/56/35 124/61/35 123/62/35
f 129/60/36 126/63/36 131/64/36
f 133/57/37 123/62/37 121/65/37
f 126/63/38 135/55/38 131/64/38
f 134/66/39 128/67/39 132/58/39
f 134/66/40 121/65/40 122/68/40
f 136/54/41 125/69/41 124/61/41
f 135/55/42 109/50/42 131/64/42
f 129/60/43 109/50/43 110/39/43
f 132/58/44 110/39/44 111/47/44
f 134/66/45 111/47/45 105/51/45
f 105/51/42 133/57/42 134/66/42
f 136/54/46 107/43/46 108/29/46
f 130/56/47 106/46/47 107/43/47
f 133/57/48 104/45/48 106/46/48
f 132/58/49 128/67/49 127/59/49
f 130/56/50 136/54/50 124/61/50
f 129/60/51 127/59/51 126/63/51
f 133/57/52 130/56/52 123/62/52
f 126/63/38 125/69/38 135/55/38
f 134/66/53 122/68/53 128/67/53
f 134/66/40 133/57/40 121/65/40
f 136/54/54 135/55/54 125/69/54
f 135/55/42 108/29/42 109/50/42
f 129/60/55 131/64/55 109/50/55
f 132/58/56 129/60/56 110/39/56
f 134/66/57 132/58/57 111/47/57
f 105/51/42 104/45/42 133/57/42
usemtl LH_White
f 92/37/58 19/70/58 91/38/58
f 93/36/59 21/71/59 92/37/59
f 94/33/60 23/72/60 93/36/60
f 25/73/61 63/74/61 66/75/61
f 29/76/62 72/77/62 76/78/62
f 96/35/63 31/79/63 95/9/63
f 91/34/64 33/80/64 96/35/64
f 35/81/2 44/82/2 36/83/2
f 37/84/2 43/85/2 35/81/2
f 37/84/2 46/86/2 45/87/2
f 39/88/2 46/86/2 38/89/2
f 40/90/2 47/91/2 39/88/2
f 41/92/2 48/93/2 40/90/2
f 42/94/2 49/95/2 41/92/2
f 36/83/2 50/96/2 42/94/2
f 94/33/65 98/32/65 63/74/65
f 66/75/61 67/97/61 27/98/61
f 66/75/61 27/98/61 25/73/61
f 29/76/62 27/98/62 72/77/62
f 27/98/62 67/97/62 72/77/62
f 98/32/66 103/7/66 76/78/66
f 35/81/2 43/85/2 44/82/2
f 37/84/2 45/87/2 43/85/2
f 37/84/2 38/89/2 46/86/2
f 39/88/2 47/91/2 46/86/2
f 40/90/2 48/93/2 47/91/2
f 41/92/2 49/95/2 48/93/2
f 42/94/2 50/96/2 49/95/2
f 36/83/2 44/82/2 50/96/2
f 103/7/67 31/79/67 29/76/67
f 94/33/68 63/74/68 25/73/68
f 92/37/58 21/71/58 19/70/58
f 93/36/59 23/72/59 21/71/59
f 94/33/60 25/73/60 23/72/60
f 96/35/63 33/80/63 31/79/63
f 91/34/64 19/99/64 33/80/64
f 98/32/65 75/100/65 63/74/65
f 76/78/69 103/7/69 29/76/69
f 76/78/66 75/100/66 98/32/66
f 103/7/67 95/9/67 31/79/67
usemtl LH_Darklamp
f 41/92/70 57/101/70 42/94/70
f 40/90/71 87/102/71 55/103/71
f 37/84/72 54/104/72 38/89/72
f 36/83/73 51/105/73 35/81/73
f 42/94/74 52/106/74 36/83/74
f 40/90/75 56/107/75 41/92/75
f 79/108/76 80/109/76 38/89/76
f 35/81/77 53/110/77 37/84/77
f 124/61/78 53/110/78 123/62/78
f 41/92/70 56/107/70 57/101/70
f 40/90/71 39/88/71 82/111/71
f 39/88/71 81/112/71 82/111/71
f 78/113/71 58/114/71 87/102/71
f 58/114/71 55/103/71 87/102/71
f 40/90/71 82/111/71 87/102/71
f 37/84/72 53/110/72 54/104/72
f 36/83/73 52/106/73 51/105/73
f 42/94/74 57/101/74 52/106/74
f 40/90/75 55/103/75 56/107/75
f 81/112/76 39/88/76 80/109/76
f 39/88/76 38/89/76 80/109/76
f 54/104/76 58/114/76 79/108/76
f 58/114/76 78/113/76 79/108/76
f 54/104/76 79/108/76 38/89/76
f 35/81/77 51/105/77 53/110/77
f 123/62/79 51/105/79 121/65/79
f 121/65/80 52/106/80 122/68/80
f 128/67/81 52/106/81 57/101/81
f 127/59/82 57/101/82 56/107/82
f 125/69/83 54/104/83 124/61/83
f 126/63/84 58/114/84 125/69/84
f 126/63/85 56/107/85 55/103/85
f 124/61/86 54/104/86 53/110/86
f 123/62/87 53/110/87 51/105/87
f 121/65/80 51/105/80 52/106/80
f 128/67/88 122/68/88 52/106/88
f 127/59/89 128/67/89 57/101/89
f 125/69/90 58/114/90 54/104/90
f 126/63/91 55/103/91 58/114/91
f 126/63/92 127/59/92 56/107/92
usemtl LH_Interior
f 80/115/93 2/116/93 1/117/93
f 84/118/2 83/119/2 82/120/2
f 79/121/94 87/122/94 16/123/94
f 70/124/95 4/125/95 3/126/95
f 6/2/96 60/26/96 61/127/96
f 89/128/97 8/129/97 88/130/97
f 13/131/74 64/132/74 12/133/74
f 14/134/73 71/135/73 13/131/73
f 15/136/98 77/137/98 68/138/98
f 73/139/72 77/137/72 17/140/72
f 88/141/99 18/142/99 90/143/99
f 14/144/2 12/145/2 9/146/2
f 25/147/96 29/148/96 33/149/96
f 63/150/96 76/151/96 62/152/96
f 65/1/12 63/150/12 60/26/12
f 97/153/100 84/154/100 102/155/100
f 102/155/101 85/156/101 101/157/101
f 68/158/98 76/159/98 72/160/98
f 3/126/98 73/161/98 68/158/98
f 72/162/2 66/163/2 71/164/2
f 86/165/102 87/166/102 82/167/102
f 80/115/93 79/121/93 2/116/93
f 86/168/2 82/120/2 83/119/2
f 82/120/2 81/169/2 84/118/2
f 81/169/2 80/115/2 84/118/2
f 80/115/2 1/117/2 85/170/2
f 80/115/2 85/170/2 84/118/2
f 16/123/103 2/116/103 79/121/103
f 79/121/96 78/171/96 87/122/96
f 89/128/104 60/172/104 99/173/104
f 9/174/75 11/175/75 60/172/75
f 13/131/74 71/135/74 64/132/74
f 14/134/73 69/176/73 71/135/73
f 69/176/77 14/134/77 68/138/77
f 14/134/77 15/136/77 68/138/77
f 77/137/105 73/139/105 68/138/105
f 8/177/106 10/178/106 2/179/106
f 2/179/107 16/180/107 8/177/107
f 8/177/108 16/180/108 18/181/108
f 77/137/72 15/136/72 17/140/72
f 90/143/109 18/142/109 100/182/109
f 9/146/2 7/183/2 17/184/2
f 17/184/2 15/185/2 14/144/2
f 14/144/2 13/186/2 12/145/2
f 12/145/2 11/187/2 9/146/2
f 9/146/2 17/184/2 14/144/2
f 33/149/96 19/188/96 21/189/96
f 21/189/96 23/190/96 25/147/96
f 25/147/96 27/191/96 29/148/96
f 29/148/96 31/192/96 33/149/96
f 33/149/96 21/189/96 25/147/96
f 59/193/96 60/26/96 63/150/96
f 63/150/96 75/194/96 76/151/96
f 76/151/96 73/195/96 74/196/96
f 62/152/96 59/193/96 63/150/96
f 76/151/96 74/196/96 62/152/96
f 65/1/12 66/163/12 63/150/12
f 99/173/110 101/157/110 1/197/110
f 97/153/111 100/182/111 86/198/111
f 68/158/98 73/161/98 76/159/98
f 3/126/112 4/125/112 73/161/112
f 69/199/2 68/5/2 72/162/2
f 72/162/2 67/200/2 66/163/2
f 66/163/2 65/1/2 64/201/2
f 71/164/2 69/199/2 72/162/2
f 66/163/2 64/201/2 71/164/2
f 86/165/113 16/202/113 87/166/113
f 73/139/114 97/153/114 74/203/114
f 60/172/115 101/157/115 99/173/115
f 97/153/116 62/204/116 74/203/116
f 102/155/117 59/205/117 62/204/117
f 16/206/118 100/182/118 18/142/118
f 83/207/119 97/153/119 86/198/119
f 88/141/120 17/140/120 7/208/120
f 90/143/121 73/139/121 17/140/121
f 10/209/122 89/128/122 99/173/122
f 89/128/123 7/210/123 9/174/123
f 2/211/124 10/209/124 99/173/124
f 10/209/97 8/129/97 89/128/97
f 89/128/125 9/174/125 60/172/125
f 8/212/99 18/142/99 88/141/99
f 85/156/126 1/197/126 101/157/126
f 83/207/100 84/154/100 97/153/100
f 84/154/101 85/156/101 102/155/101
f 100/182/127 16/206/127 86/198/127
f 73/139/114 100/182/114 97/153/114
f 60/172/115 59/205/115 101/157/115
f 97/153/116 102/155/116 62/204/116
f 102/155/117 101/157/117 59/205/117
f 1/197/128 2/211/128 99/173/128
f 88/141/120 90/143/120 17/140/120
f 90/143/129 100/182/129 73/139/129
f 89/128/123 88/130/123 7/210/123
